<svg width="178" height="36" viewBox="0 0 178 36" fill="none" xmlns="http://www.w3.org/2000/svg">
<g clip-path="url(#clip0_15_59)">
<path d="M113.88 28.7098L107.086 19.5586L100.299 28.7098H97.5027L105.671 17.6532L98.2111 7.60303H101.007L107.086 15.7997L113.164 7.60303H115.959L108.504 17.6514L116.674 28.7098H113.88ZM60.9361 28.7061L52.7586 17.6514L60.2184 7.60303H57.4224L51.3419 15.8015L45.267 7.60303H42.4784L49.9345 17.6514L41.7589 28.7061H44.5587L51.3456 19.5586L58.1381 28.7061H60.9361Z" fill="#FBF503"/>
<path d="M76.4838 18.4507C76.0625 18.0943 75.5932 17.7979 75.0895 17.5701C75.8625 17.1625 76.5089 16.5537 76.9595 15.809C77.4101 15.0643 77.6478 14.2119 77.647 13.3432C77.647 11.9928 77.1456 7.6013 70.7333 7.6013H62.0972V16.7007H59.221C58.8482 17.1835 58.0001 18.3434 57.6776 18.8188H62.0972V28.7062L70.7352 28.7081C75.4139 28.7081 78.3199 26.3514 78.3199 22.5462C78.3199 20.8851 77.688 19.4736 76.4838 18.4507ZM64.4851 9.80447H70.7352C72.4258 9.80447 75.2592 10.2225 75.2592 13.1582C75.2592 15.3781 73.6095 16.7007 70.7352 16.7007H64.4851V9.80447ZM70.7333 26.5067H64.4832V18.8243H70.7333C73.1025 18.8243 75.9377 19.4736 75.9377 22.5C75.9377 25.9851 72.6775 26.5067 70.7333 26.5067ZM89.5544 7.11664C83.5802 7.11664 79.4048 11.6506 79.4048 18.1436C79.4048 24.6458 83.5802 29.1761 89.5544 29.1761C95.523 29.1761 99.6873 24.6458 99.6873 18.1436C99.6873 11.6506 95.523 7.11664 89.5544 7.11664ZM89.5544 26.9433C85.0024 26.9433 81.8131 23.3232 81.8131 18.1436C81.8131 12.964 85.0024 9.34571 89.5544 9.34571C94.0989 9.34571 97.2696 12.964 97.2696 18.1436C97.2696 23.3232 94.0989 26.9433 89.5544 26.9433ZM5.29648 5.34449L5.27971 5.35929V5.36114C3.60698 6.99549 2.27914 8.94421 1.37373 11.0935C0.468314 13.2428 0.0034783 15.5495 0.00636411 17.8791C0.00106745 21.7301 1.27463 25.4755 3.63004 28.536C3.65427 28.5656 3.69155 28.5823 3.72511 28.5656C3.75679 28.5471 3.75866 28.5083 3.74561 28.475C2.39419 24.3276 9.30229 14.2756 12.8719 10.0616C12.8831 10.0468 12.898 10.0302 12.898 10.0098C12.898 9.98575 12.8812 9.96726 12.8644 9.95246C6.86041 4.02185 5.25734 5.37779 5.27971 5.35929L5.29648 5.34449ZM30.1738 5.34449L30.1906 5.35929V5.36114C31.8632 6.99552 33.1908 8.94429 34.0959 11.0936C35.001 13.2429 35.4654 15.5496 35.4621 17.8791C35.4674 21.7301 34.1938 25.4755 31.8384 28.536C31.8161 28.5656 31.7769 28.5823 31.7434 28.5656C31.7135 28.5471 31.7117 28.5083 31.7229 28.475C33.0743 24.3276 26.1718 14.2682 22.604 10.0524C22.591 10.0376 22.5779 10.0209 22.5779 10.0024C22.5779 9.97651 22.5928 9.95801 22.6115 9.94321C28.6174 4.0126 30.2093 5.37779 30.1888 5.35929L30.1738 5.34449ZM17.7352 0.285156C21.3122 0.285156 24.2555 1.25818 26.9696 2.86014C27.0031 2.87679 27.0124 2.91379 26.9994 2.94709C26.9863 2.97853 26.9491 2.98593 26.9137 2.97668C23.482 2.24044 18.2645 5.18355 17.7724 5.47768C17.7613 5.48508 17.7501 5.49248 17.7352 5.49248C17.7184 5.49248 17.7072 5.48508 17.696 5.47768C16.3875 4.73219 11.5652 2.2238 8.52871 2.99518C8.49516 3.00258 8.45788 2.99703 8.44297 2.96373C8.43661 2.9481 8.43612 2.93072 8.44159 2.91476C8.44707 2.8988 8.45814 2.88533 8.47279 2.87679C11.1868 1.25818 14.1674 0.285156 17.7352 0.285156ZM17.7352 14.3958C17.7557 14.3958 17.778 14.4124 17.7911 14.4235C23.0961 18.4266 32.1758 28.3233 29.404 31.1221L29.4077 31.1184L29.4059 31.1221H29.4021C26.1753 33.9329 22.0269 35.4803 17.7333 35.4748C13.4393 35.4799 9.29038 33.9326 6.0626 31.1221L6.05887 31.1184L6.0626 31.1221C3.29638 28.3233 12.3742 18.4266 17.6736 14.4235C17.6886 14.4124 17.7128 14.3958 17.7352 14.3958ZM157.948 7.60315V24.9233L145.091 7.5902L142.983 7.5865V28.6748H145.35V11.7376L157.944 28.6877L160.317 28.6914V7.60315H157.948ZM130.694 7.11294C124.719 7.11294 120.542 11.6488 120.542 18.1399C120.542 24.6421 124.719 29.1798 130.694 29.1798C136.662 29.1798 140.826 24.6421 140.826 18.1399C140.826 11.6506 136.662 7.11294 130.694 7.11294ZM130.694 26.9433C126.142 26.9433 122.952 23.3232 122.952 18.1399C122.952 12.9622 126.142 9.34201 130.694 9.34201C135.238 9.34201 138.409 12.9622 138.409 18.1399C138.409 23.3232 135.238 26.9433 130.694 26.9433ZM165.355 26.627V18.8243H177.056V16.7599H165.355V9.65093H177.85V7.58835H162.975V28.6914H177.997V26.627H165.355Z" fill="#FBF503"/>
</g>
<defs>
<clipPath id="clip0_15_59">
<rect width="178" height="35.1878" fill="white" transform="translate(0 0.285156)"/>
</clipPath>
</defs>
</svg>
