<svg width="173" height="74" viewBox="0 0 173 74" fill="none" xmlns="http://www.w3.org/2000/svg">
<g clip-path="url(#clip0_17_297)">
<path d="M12.532 65.9356C13.6027 64.784 14.8613 63.4834 15.6128 62.8719C15.4015 62.8537 15.068 62.8127 14.7059 62.7581C13.9226 63.4717 12.9234 64.5142 12.0282 65.4703C10.8938 66.6941 9.95894 67.7632 9.95894 67.7684C9.94463 67.7775 9.93943 67.7964 9.92448 67.8094C9.18337 68.0135 7.92544 68.3592 7.08877 68.5874C5.84839 68.9312 4.73543 68.8467 4.73543 69.6578C4.73543 69.6578 3.45149 70.3461 3.75184 71.3723C3.75184 71.3723 6.32751 69.3153 8.53133 68.9669C8.53133 68.9669 7.18498 69.8424 7.3072 71.0292C7.3072 71.0292 9.12162 68.315 11.2403 69.9607C11.2403 69.9607 10.2963 68.6784 10.6896 67.9725C11.0283 67.5884 11.7298 66.7994 12.532 65.9356ZM8.45202 33.8881C8.34085 33.9375 8.22513 33.9557 8.10617 33.9557C7.73041 33.9557 7.37806 33.7282 7.22529 33.3558C7.21164 33.3253 7.19409 33.2889 7.18759 33.2505L6.90804 33.3435C7.14338 34.0285 7.85068 34.4035 8.48907 34.1825C8.64965 34.1247 8.79332 34.0396 8.90448 33.9304C9.25554 33.6002 9.39791 33.0634 9.22303 32.5532L8.58204 32.7722C8.62234 32.8664 8.64965 32.9685 8.64965 33.0777C8.64965 33.1725 8.63339 33.2583 8.59569 33.3402L8.88823 33.5183C8.83752 33.595 8.77512 33.6717 8.70035 33.7354C8.63339 33.7991 8.54758 33.8498 8.45202 33.8881ZM34.4083 31.8096L21.7399 34.8988V34.8851L21.7438 34.8988L46.4884 24.1944L26.0956 26.6914L37.0113 18.72L25.3142 23.2858L27.0805 19.7417L18.7131 25.7672L18.6422 25.6398L30.5052 0L11.2143 22.8269L11.094 10.3814L4.01577 27.0164L3.64782 22.1126L0.160716 34.8734L0.167217 34.8695V34.8734C0.167217 34.8734 0.637235 34.5257 1.26913 34.3353C1.31983 34.3216 1.37119 34.3086 1.4219 34.2943C1.4284 34.2943 1.4349 34.2891 1.44205 34.2891C1.49341 34.2781 1.54412 34.2657 1.59482 34.2579C1.60133 34.2579 1.60913 34.2521 1.61888 34.2521C1.67088 34.243 1.72094 34.2358 1.77945 34.2326V34.2267C1.83406 34.2222 1.88737 34.2196 1.93872 34.215H1.97188C2.02324 34.2105 2.07849 34.2105 2.13635 34.215C2.1396 34.215 2.14285 34.215 2.15521 34.2196C2.20331 34.2196 2.25077 34.2222 2.30213 34.2326C2.31188 34.2358 2.31838 34.2358 2.32943 34.2358C2.38469 34.243 2.43475 34.2521 2.4861 34.2657C2.49976 34.2657 2.51341 34.2703 2.51991 34.2735C2.57322 34.2872 2.62782 34.3015 2.68633 34.3216C3.87926 34.7532 4.89405 34.3216 4.89405 34.3216C4.89405 34.3216 6.01742 35.0424 6.01742 35.6475H6.01482V35.6501C6.01482 35.6501 4.5365 35.7365 4.5365 35.082C4.5365 35.082 2.64603 34.4107 0.000793457 35.3908L5.57925 37.789C5.576 37.763 5.28151 36.7251 5.60396 36.3637C5.70602 36.2389 5.88545 36.1954 6.16499 36.2903C6.26705 36.3267 6.34116 36.3176 6.38732 36.2727C6.82093 35.8256 4.71723 31.9416 4.71723 31.9416C4.71723 31.9416 2.82805 31.7583 1.19372 33.4676C1.08515 33.5807 0.972033 33.7022 0.867368 33.8355V33.8296V33.8355C1.03444 33.5443 1.56427 32.7 2.4484 31.9689C2.97822 31.5243 3.64132 31.1259 4.43119 30.901C4.64767 30.3817 4.37268 30.7197 4.81929 30.4467C4.82254 30.4467 4.82254 30.4422 4.82254 30.4422C5.03252 29.0728 5.80808 25.5456 8.48322 22.5286C8.66265 22.3284 8.84728 22.1263 9.0436 21.9346C9.0436 21.9346 8.35841 23.2234 8.35841 24.1196C8.37791 24.0969 9.05466 23.0817 9.99014 22.1529V22.149C9.99014 22.149 9.97909 22.164 9.96544 22.1893C9.79186 22.5611 8.51638 25.283 8.64965 26.0779C8.65355 26.085 8.65615 26.0896 8.65615 26.0974L11.2344 23.7355C11.2344 23.7355 11.2273 23.7401 11.2234 23.7427C11.1486 23.8447 8.80242 27.0164 8.57099 28.1037V28.1109L12.4748 25.3233L12.4709 25.3279C12.4579 25.3506 11.9794 26.0181 11.7779 26.384C11.6349 26.6459 11.6141 26.7343 11.6141 26.7616L11.6206 26.7824L13.7223 25.8816C13.7223 25.8816 13.6313 25.9908 13.4844 26.15L12.7023 26.9449L12.5093 27.149L11.0875 28.5853L11.0608 28.6185L9.97909 29.7175L9.28544 30.424C9.28544 30.424 8.71791 31.0148 8.64965 31.3209C8.58204 31.6218 8.90188 31.8077 8.90188 31.8077H8.89798C9.18727 31.9689 9.42066 32.2184 9.55783 32.5168C9.63324 32.6974 9.67615 32.8937 9.67615 33.105C9.67615 33.5183 9.50647 33.8933 9.22303 34.1643C8.94544 34.4373 8.55408 34.6076 8.12307 34.6076C7.73041 34.6076 7.38196 34.4653 7.10957 34.2378C7.15703 34.3015 7.92544 35.2673 9.33615 34.5166L11.0797 33.246L11.1551 33.1868L12.9572 31.8694C13.3823 32.3712 13.7841 32.9756 14.1475 33.6613C13.0768 34.6784 11.2507 36.443 9.42716 38.3727C8.34085 39.5198 7.2565 40.7326 6.33076 41.8777L6.98086 38.8237L7.03481 38.5715C7.03481 38.5715 7.03221 38.5715 7.03221 38.5761C7.02506 38.5793 7.02116 38.5793 7.01596 38.5839C7.01596 38.5865 7.00751 38.591 7.00751 38.591C7.00101 38.5943 6.99386 38.5943 6.98996 38.6047C6.98671 38.6047 6.98086 38.6073 6.98086 38.6144C6.9737 38.6183 6.96265 38.6229 6.9568 38.6274C6.9529 38.63 6.9503 38.6398 6.93925 38.6417C6.93275 38.6456 6.923 38.6554 6.9139 38.658C6.90804 38.6671 6.90219 38.671 6.89179 38.6781C6.88464 38.6853 6.87944 38.6931 6.86449 38.6963C6.85474 38.7067 6.84824 38.7165 6.83718 38.7217C6.82808 38.7295 6.81703 38.7418 6.80598 38.7438C6.79753 38.7574 6.78648 38.7691 6.77738 38.773C6.76242 38.7828 6.75267 38.7951 6.73902 38.8042C6.72862 38.8114 6.71887 38.8237 6.70977 38.8341C6.69546 38.8458 6.67791 38.8549 6.66816 38.8712C6.65061 38.8777 6.64411 38.8894 6.6272 38.8965C6.6168 38.9134 6.5999 38.9257 6.58235 38.9407C6.57325 38.9517 6.55504 38.9641 6.54529 38.9771C6.52774 38.9914 6.50759 39.0076 6.49393 39.0258C6.48028 39.0382 6.47118 39.0499 6.45298 39.059C6.43998 39.0791 6.42047 39.0986 6.39577 39.1168C6.38212 39.1279 6.37172 39.137 6.36197 39.15C6.35091 39.161 6.33791 39.1727 6.32361 39.1838C6.32361 39.1883 6.32101 39.1883 6.32101 39.1883C6.30151 39.2065 6.28005 39.2299 6.2599 39.252C6.24235 39.2631 6.2287 39.2813 6.21634 39.2975C6.19164 39.3157 6.17409 39.3365 6.15394 39.356C6.13703 39.3723 6.11948 39.3924 6.10323 39.4067C6.08958 39.4275 6.07202 39.4431 6.06292 39.4561C6.05577 39.4613 6.04667 39.471 6.03887 39.4788C6.03887 39.4814 6.03237 39.4866 6.02457 39.4938C6.01221 39.5068 6.00116 39.5178 5.98751 39.5321C5.97061 39.5523 5.95371 39.5685 5.9368 39.5887C5.9329 39.5958 5.9303 39.6017 5.92315 39.603C5.916 39.6108 5.91015 39.614 5.903 39.6218C5.8939 39.6381 5.8822 39.6498 5.86854 39.6615C5.84839 39.6907 5.82824 39.7128 5.80093 39.7362C5.78338 39.7616 5.76258 39.7798 5.74633 39.8058C5.72617 39.8311 5.69887 39.8584 5.67807 39.8818C5.65791 39.9071 5.63906 39.9273 5.61956 39.9526C5.59355 39.9812 5.5734 40.0111 5.5461 40.0397C5.52854 40.0625 5.50774 40.0859 5.48564 40.1132C5.46419 40.1444 5.44013 40.1717 5.41283 40.2081C5.39267 40.2263 5.37577 40.2542 5.35432 40.277C5.32897 40.3153 5.30101 40.3478 5.27371 40.3848C5.2529 40.4121 5.236 40.4303 5.22235 40.4544C5.1892 40.4986 5.15409 40.5421 5.12029 40.5857C5.10988 40.6032 5.09233 40.6234 5.08323 40.6396C5.03577 40.7053 4.98507 40.7716 4.93956 40.8405L4.93371 40.8482C4.8882 40.9145 4.84074 40.9802 4.79719 41.0471C4.78614 41.0666 4.77183 41.0894 4.75753 41.1102C4.72633 41.1609 4.68992 41.2122 4.65547 41.2662C4.63727 41.2915 4.62426 41.3168 4.60411 41.3422C4.57356 41.3935 4.54235 41.439 4.50855 41.4897C4.49099 41.5209 4.47474 41.5482 4.45849 41.5762C4.43119 41.6275 4.39673 41.6795 4.36358 41.7302C4.34927 41.7614 4.32912 41.7913 4.31287 41.8238C4.28166 41.8751 4.25436 41.9284 4.2199 41.9798C4.20235 42.0071 4.18285 42.0435 4.1653 42.0747C4.13409 42.1345 4.10354 42.1858 4.07233 42.2404C4.05803 42.271 4.03918 42.3054 4.02293 42.3405C3.87926 42.6044 3.74013 42.8773 3.59711 43.1724V43.1776L2.87941 43.2978C3.02308 42.9287 3.16545 42.5933 3.31887 42.2755L2.1487 43.9224L3.31887 43.808C2.31838 46.1068 1.58442 49.1154 1.58442 53.3997L2.53681 52.7973C3.37673 57.5795 7.3202 59.6813 7.3202 59.6813L7.3137 59.6514C9.48567 61.0728 12.1303 62.0672 15.0446 62.4611C15.449 62.5124 15.7766 62.5423 15.8507 62.5495C15.8533 62.5495 15.8533 62.5495 15.8533 62.5475C15.906 62.554 15.9528 62.5631 16.0035 62.5631C17.5819 62.7009 19.1149 62.6444 20.5808 62.4299C20.5769 62.4858 20.5737 62.5423 20.5737 62.5989C20.5737 63.5458 21.1003 64.3251 21.7712 64.3895C20.3936 66.7325 19.2774 69.8443 19.2741 69.8586C19.2208 70.0016 19.111 70.2668 18.9998 70.3461C18.6604 70.4228 18.6331 70.4397 18.2574 70.5567L18.2632 70.5521C18.1365 70.4286 17.0482 70.2252 15.9398 70.6411C15.9424 70.6463 15.9424 70.6463 15.9489 70.6522C15.3216 70.9271 14.7111 71.4295 14.2879 72.2621C14.7384 71.8981 15.579 71.3067 16.2636 71.3886C15.4529 71.85 14.0526 72.7313 13.8927 74C13.8927 74 18.7541 70.5898 21.151 71.2189C21.151 71.2189 20.8019 71.6154 21.6275 73.0881L22.0045 71.7181C22.4362 70.389 20.7713 70.1933 20.0712 70.1647C20.0744 70.155 20.0744 70.1505 20.0744 70.1485C20.0744 70.1485 20.1518 69.9353 20.2876 69.5831C20.7004 68.5185 21.6613 66.1651 22.7131 64.485C22.732 64.4499 22.7456 64.4122 22.7567 64.3778L22.5597 64.1067C22.5617 64.1067 22.7021 63.9533 22.7775 63.8403C22.9166 63.6199 23.1103 63.2462 23.1136 62.7516C23.1136 62.3636 23.0187 61.8742 22.7424 61.2659L23.3652 60.9773C23.399 61.0566 23.4321 61.13 23.4653 61.2009C23.4744 61.2282 23.4835 61.2522 23.4913 61.273C23.5108 61.3237 23.531 61.3751 23.5479 61.4258C23.5583 61.4485 23.5674 61.4771 23.5765 61.5024C23.5934 61.5577 23.609 61.609 23.6272 61.6597C23.6311 61.6753 23.6408 61.6961 23.6447 61.7143L27.2027 60.64L26.4141 59.9907H26.4089L26.3738 59.9556L26.3556 59.942L12.8987 47.6894C12.9026 47.6894 12.9065 47.6959 12.9065 47.6959L12.9026 47.6894C16.6439 49.5086 21.0079 51.6235 28.4106 55.0525C35.7033 58.4133 40.3209 60.3709 42.7029 61.3465C42.723 61.3595 42.7451 61.3679 42.7614 61.3751H42.7653C43.1111 61.5174 43.4082 61.6363 43.6585 61.7384C44.1682 61.9379 44.646 62.1225 44.672 62.1342C44.7123 62.1114 44.7604 62.0991 44.8014 62.0776L17.5949 43.4226L34.4083 31.8096ZM15.579 37.5596L11.5231 40.6442L14.4342 34.243V34.2378C14.8971 35.2192 15.2858 36.341 15.5829 37.5596H15.579ZM30.0618 59.6287L30.1632 60.1155H30.1606L34.9011 62.9109L36.1005 63.6076L35.4446 61.9204C39.3555 63.0733 42.5404 63.1377 44.6584 62.14C44.6584 62.14 44.6558 62.14 44.6558 62.1413C40.9691 63.2306 31.8275 60.1512 30.0618 59.6287Z" fill="#DC0D15"/>
<path d="M4.53636 35.0816C4.53636 35.7361 6.01467 35.6496 6.01467 35.6496C6.01467 35.0478 4.89326 34.3238 4.89326 34.3238C4.89326 34.3238 3.87911 34.7527 2.67969 34.3238C2.19927 34.1502 1.69675 34.2068 1.26898 34.3374C0.700802 34.7163 0 35.3948 0 35.3948C2.64588 34.4108 4.53636 35.0816 4.53636 35.0816ZM14.434 34.2432L11.5229 40.6437L15.5789 37.5591C15.2857 36.3405 14.8911 35.2239 14.434 34.2432ZM44.6784 62.1344C44.6784 62.1344 35.5667 58.7164 12.8985 47.689L26.4081 59.9909H26.414C27.6238 59.4885 28.4754 59.1317 30.1605 60.1157L30.061 59.6282C31.8234 60.1508 40.9995 63.2457 44.6784 62.1344ZM22.7416 61.2654C23.0185 61.8737 23.1135 62.3638 23.1135 62.7511C23.1096 63.2457 22.9165 63.6201 22.7773 63.8404C22.7019 63.9535 22.5615 64.1063 22.5596 64.1063L22.9639 64.6606C23.0075 64.6327 23.7973 64.0361 23.7973 62.7511C23.7973 62.2513 23.6777 61.6599 23.3624 60.9768L22.7416 61.2654ZM14.6089 62.7414C15.2519 62.8434 15.8376 62.8974 15.8376 62.8974L15.8675 62.5575C15.8675 62.5575 15.2941 62.5068 14.6648 62.4047L14.6089 62.7414ZM14.1474 33.6615C13.7839 32.9758 13.3822 32.3714 12.957 31.8696L9.336 34.5207C7.87394 35.2928 7.10293 34.236 7.10293 34.236C7.37077 34.4654 7.72767 34.6071 8.12293 34.6071C8.98235 34.6071 9.67275 33.9299 9.67535 33.1051C9.67535 32.8965 9.6331 32.697 9.55443 32.5215C9.42052 32.218 9.18323 31.9684 8.89524 31.8092L8.90174 31.8072C8.90174 31.8072 8.58189 31.622 8.6495 31.3204C8.71776 31.0143 9.28465 30.4235 9.28465 30.4235L9.28139 30.4261L11.0607 28.618L11.0874 28.5855L12.7022 26.9444L13.4843 26.1496C13.6312 25.9903 13.7183 25.8857 13.7183 25.8857L11.6139 26.7826C11.6139 26.7826 11.5736 26.7598 11.7778 26.3835C11.9812 26.0105 12.474 25.3228 12.474 25.3228L8.56759 28.111C8.79317 27.0166 11.2336 23.7396 11.2336 23.7396L8.65535 26.0989C8.48243 25.2767 9.99 22.1525 9.99 22.1525C9.04086 23.0929 8.35761 24.125 8.35761 24.125C8.35761 23.2236 9.04086 21.9341 9.04086 21.9341C5.91001 25.0655 5.04083 28.9839 4.8224 30.4417C4.36863 30.7251 4.64752 30.38 4.43104 30.9006C2.32864 31.4939 1.13571 33.369 0.864626 33.835C2.56982 31.7312 4.71643 31.9411 4.71643 31.9411C4.71643 31.9411 7.27975 36.6765 6.16484 36.2943C5.04083 35.905 5.57911 37.7885 5.57911 37.7885L3.4819 36.8845C3.82775 37.5689 4.5084 39.1807 4.1177 40.8575C3.68603 41.5133 3.25762 42.3127 2.87862 43.298L3.59632 43.1778C3.73674 42.8775 3.87586 42.6039 4.01563 42.342C4.03578 42.3082 4.05724 42.2757 4.07219 42.2425C4.10014 42.1873 4.13135 42.134 4.16515 42.0787C4.18206 42.0462 4.20221 42.0105 4.21976 41.9793C4.24967 41.9286 4.27567 41.8773 4.30882 41.8266C4.32898 41.7908 4.34913 41.7609 4.36343 41.7297C4.39594 41.679 4.42324 41.627 4.45835 41.5796C4.4746 41.5478 4.49085 41.5205 4.5084 41.4951C4.53896 41.4438 4.57276 41.3931 4.60397 41.3437C4.61827 41.3164 4.63322 41.291 4.65467 41.2657C4.68393 41.2143 4.72033 41.1636 4.75674 41.1129C4.77169 41.0889 4.78079 41.0662 4.79705 41.0473C4.8406 40.9797 4.88806 40.9141 4.93357 40.8504C4.93357 40.8478 4.93877 40.8432 4.93877 40.8406C4.98427 40.7711 5.03173 40.7087 5.07724 40.6437C5.09219 40.6281 5.10649 40.6066 5.12014 40.5884C5.15395 40.5417 5.18515 40.5007 5.21831 40.4546C5.23586 40.4299 5.25211 40.4117 5.27291 40.3889C5.29762 40.3525 5.32427 40.3148 5.35158 40.2771C5.37498 40.2544 5.39253 40.2316 5.40878 40.2076C5.43414 40.1751 5.46014 40.1439 5.48549 40.1127C5.50435 40.09 5.5284 40.0672 5.5453 40.0419C5.57261 40.0107 5.59276 39.984 5.61616 39.9554C5.63827 39.9327 5.65517 39.9093 5.67467 39.8865C5.69873 39.8579 5.72148 39.8306 5.74618 39.8072C5.76243 39.7845 5.78324 39.763 5.80079 39.7416C5.82354 39.7123 5.8476 39.6902 5.8645 39.6649C5.8853 39.6467 5.90221 39.6214 5.92236 39.6032C5.94446 39.5804 5.96331 39.5596 5.98737 39.5356C6.00427 39.5122 6.02117 39.4992 6.03807 39.4784C6.06278 39.4556 6.08098 39.4355 6.10308 39.4101C6.11674 39.3971 6.13689 39.3763 6.15379 39.3555C6.17004 39.336 6.1915 39.3152 6.21555 39.297C6.22855 39.2827 6.2422 39.2671 6.25976 39.2515C6.27926 39.2301 6.30136 39.206 6.32022 39.1878C6.33777 39.1768 6.34687 39.1605 6.36117 39.1515C6.39498 39.117 6.42228 39.0884 6.45284 39.0585C6.47104 39.0494 6.48014 39.0377 6.49379 39.026C6.50744 39.0078 6.5276 38.9916 6.5445 38.9766C6.55425 38.9636 6.57245 38.9513 6.5822 38.9402C6.59911 38.9259 6.61666 38.9129 6.62641 38.8967C6.64396 38.8895 6.65046 38.8772 6.66737 38.8713C6.67777 38.8544 6.69467 38.8453 6.70962 38.8336C6.71872 38.8239 6.72848 38.8109 6.73888 38.8037C6.75253 38.7946 6.76228 38.7829 6.77658 38.7725C6.78568 38.7693 6.79673 38.7569 6.80584 38.7433C6.81689 38.742 6.82794 38.729 6.83704 38.7218C6.84809 38.716 6.85394 38.7062 6.86434 38.6965C6.87865 38.6926 6.8845 38.6854 6.89165 38.6783C6.9014 38.6705 6.9079 38.6672 6.91375 38.6581C6.9222 38.6549 6.9326 38.6452 6.93911 38.6419C6.94951 38.64 6.95276 38.6296 6.95601 38.627C6.96251 38.6224 6.97356 38.6179 6.98071 38.614C6.98071 38.6068 6.98656 38.6042 6.98981 38.6042C6.99371 38.5945 7.00086 38.5945 7.00737 38.5906C7.00737 38.5906 7.01517 38.586 7.01517 38.5834C7.02102 38.5789 7.02427 38.5789 7.03207 38.5763C7.03207 38.5717 7.03467 38.5717 7.03467 38.5717L6.98071 38.8239L6.33062 41.8773C8.79577 38.8239 12.4357 35.2811 14.1474 33.6615ZM6.9053 33.3437L7.18744 33.2507C7.19394 33.2891 7.2115 33.3255 7.22515 33.3554C7.37792 33.7278 7.73027 33.9552 8.10538 33.9552C8.22499 33.9552 8.34071 33.937 8.45187 33.8876C8.6391 33.8116 8.78862 33.6764 8.88809 33.5185L8.59555 33.3437C8.6326 33.2631 8.6495 33.1721 8.6495 33.0778C8.6495 32.9686 8.6222 32.8666 8.58189 32.7717L9.22289 32.5533C9.45497 33.2351 9.12862 33.9643 8.48633 34.1847C7.84794 34.403 7.13933 34.0319 6.9053 33.3437Z" fill="black"/>
<path d="M66.2148 38.4712C65.7825 38.3555 65.1363 38.2918 64.2957 38.2918H62.4703V48.6056L62.664 48.4704L64.1651 47.4123L64.2184 47.3733V44.4551H64.7918C65.8508 44.4551 66.7102 44.1724 67.3414 43.6239C67.9779 43.0656 68.2984 42.3077 68.2984 41.3653C68.2984 40.4827 67.9974 39.7438 67.4051 39.1614C67.0645 38.8261 66.6666 38.5934 66.2148 38.4712ZM64.6949 42.9687H64.2138V39.8068H64.7534C66.1323 39.8068 66.8266 40.3177 66.8266 41.3367C66.8266 42.4247 66.1128 42.9687 64.6949 42.9687ZM75.924 44.2075C76.5273 44.0372 77.0272 43.7109 77.4101 43.2306C77.8326 42.7062 78.0426 42.0647 78.0426 41.3367C78.0426 40.4041 77.702 39.6365 77.0317 39.0646C76.4297 38.555 75.4429 38.2918 74.1024 38.2918H72.223V48.6056L72.4122 48.4704L73.9184 47.4123L73.9717 47.3733V44.4207H74.0543L76.8621 48.4418L76.9297 48.5432L77.0317 48.4704L78.2364 47.6008L78.3384 47.528L78.2656 47.4266L75.924 44.2075ZM73.9717 42.9687V42.866V39.9537V39.8068H74.5107C75.8902 39.8068 76.5851 40.3177 76.5851 41.3367C76.5851 42.4247 75.8713 42.9687 74.4522 42.9687H73.9717ZM49.7154 38.5979C49.1225 38.3945 48.3112 38.2918 47.3055 38.2918H45.0965V48.4892H47.2821C48.2963 48.4892 49.0926 48.3976 49.6569 48.2078C50.2544 48.0187 50.8407 47.6788 51.3901 47.1985C52.4783 46.2314 53.0368 44.9549 53.0368 43.3905C53.0368 41.8417 52.5024 40.5646 51.4538 39.6086C50.9337 39.1367 50.3512 38.7975 49.7154 38.5979ZM50.2056 45.9409C49.861 46.2502 49.4677 46.4842 49.0341 46.6246C48.6083 46.7656 48.0544 46.8339 47.3978 46.8339H46.8446V39.9537H47.3978C48.6369 39.9537 49.5887 40.2494 50.2147 40.8278C50.9194 41.483 51.2692 42.3415 51.2692 43.3905C51.2692 44.435 50.9149 45.289 50.2056 45.9409ZM38.7282 39.7633C39.3731 39.7633 40.0102 39.9478 40.6317 40.3125L40.7396 40.3748L40.7974 40.2683L41.5262 39.0113L41.5892 38.9047L41.4826 38.841C40.6317 38.351 39.7378 38.1033 38.8341 38.1033C37.1641 38.1033 35.7852 38.7286 34.736 39.9673C33.8811 40.9825 33.4481 42.1479 33.4481 43.4399C33.4481 44.8763 33.9682 46.13 34.9836 47.1491C36.0127 48.1597 37.2661 48.6738 38.7184 48.6738C39.6793 48.6738 40.6083 48.421 41.4826 47.9264L41.5444 47.8874V47.7854L41.5307 47.7574L40.7974 46.4888L40.7337 46.3783L40.6226 46.4511C40.4191 46.5817 40.2182 46.6883 40.0342 46.7656C39.6793 46.9314 39.2431 47.0133 38.7321 47.0133C37.7524 47.0133 36.9118 46.6636 36.2312 45.9734C35.5557 45.2851 35.2112 44.4252 35.2112 43.4198C35.2112 42.4007 35.5557 41.5259 36.2312 40.8278C36.9073 40.1175 37.7465 39.7633 38.7282 39.7633ZM153.678 39.9537L153.712 39.9186L155.096 38.5056L155.306 38.2918H149.394V48.4892H153.712L153.747 48.4555L155.102 47.0425L155.3 46.8339H151.142V43.6674H152.424L152.459 43.6291L153.863 42.2213L154.071 42.0075H151.142V39.9537H153.678ZM123.763 39.9537H126.05V48.6056L126.245 48.4704L127.746 47.4123L127.8 47.3733V39.9537H130.083V38.2918H123.763V39.9537ZM86.7851 38.1072C85.3224 38.1072 84.0501 38.6278 83.0113 39.6521C81.962 40.6764 81.4322 41.9204 81.4322 43.347C81.4322 44.9686 82.0147 46.3042 83.1621 47.3096C84.201 48.2137 85.3952 48.6738 86.7071 48.6738C88.1841 48.6738 89.4667 48.1545 90.5101 47.1354C91.5548 46.1202 92.084 44.8672 92.084 43.4061C92.084 41.9581 91.5594 40.6953 90.5199 39.6658C89.4862 38.6317 88.2322 38.1072 86.7851 38.1072ZM89.2815 45.9701C88.5865 46.6636 87.7271 47.0133 86.7214 47.0133C85.8035 47.0133 84.9726 46.6681 84.2692 45.9838C83.5548 45.3046 83.1953 44.4252 83.1953 43.3626C83.1953 42.3571 83.545 41.4966 84.2296 40.8122C84.9148 40.1175 85.7696 39.7633 86.7656 39.7633C87.7661 39.7633 88.6158 40.1175 89.2919 40.8122C89.9764 41.5025 90.321 42.3708 90.321 43.3905C90.321 44.396 89.9712 45.2656 89.2815 45.9701ZM165.739 39.6086C165.219 39.1367 164.632 38.7975 163.995 38.5979C163.402 38.3945 162.596 38.2918 161.586 38.2918H159.376V48.4892H161.561C162.577 48.4892 163.379 48.3976 163.942 48.2078C164.539 48.0187 165.121 47.6788 165.671 47.1985C166.764 46.2314 167.317 44.9549 167.317 43.3905C167.317 41.8417 166.788 40.5646 165.739 39.6086ZM164.49 45.9409C164.14 46.2502 163.746 46.4842 163.32 46.6246C162.888 46.7656 162.338 46.8339 161.678 46.8339H161.125V39.9537H161.678C162.922 39.9537 163.869 40.2494 164.501 40.8278C165.2 41.483 165.553 42.3415 165.553 43.3905C165.553 44.435 165.2 45.289 164.49 45.9409ZM142.672 44.2075C143.274 44.0372 143.774 43.7109 144.159 43.2306C144.581 42.7062 144.79 42.0647 144.79 41.3367C144.79 40.4041 144.45 39.6365 143.78 39.0646C143.172 38.555 142.191 38.2918 140.85 38.2918H138.966V48.6056L139.161 48.4704L140.666 47.4123L140.72 47.3733V44.4207H140.801L143.604 48.4418L143.678 48.5432L143.78 48.4704L144.983 47.6008L145.08 47.528L145.013 47.4266L142.672 44.2075ZM140.72 42.9687V39.8068H141.253C142.638 39.8068 143.328 40.3177 143.328 41.3367C143.328 42.4247 142.618 42.9687 141.195 42.9687H140.72ZM118.983 38.3308L115.322 42.0842V38.18L115.127 38.3211L113.626 39.3752L113.572 39.4136V48.6056L113.772 48.4704L115.272 47.4123L115.322 47.3733V44.2991L115.5 44.1237L118.997 48.4457L119.066 48.5328L119.163 48.4704L120.45 47.6008L120.562 47.5234L120.474 47.4156L116.75 42.9291L121.169 38.5056L121.378 38.2918H119.023L118.983 38.3308ZM97.4707 39.3798L97.4167 39.4188V44.8522C97.4167 45.6744 97.3296 46.2502 97.1599 46.5706C97.0091 46.8722 96.7419 47.0133 96.3441 47.0133C96.0528 47.0133 95.7369 46.9021 95.3969 46.674L95.2851 46.6012L95.222 46.7117L94.479 47.994L94.4205 48.1006L94.5225 48.1643C95.0855 48.4996 95.6972 48.6738 96.3441 48.6738C97.2087 48.6738 97.9121 48.358 98.4367 47.747C98.7046 47.437 98.8944 47.0522 99.0108 46.6057C99.1174 46.2177 99.1752 45.6438 99.1752 44.8574V38.18L98.9763 38.3211L97.4707 39.3798ZM108.22 39.9537L108.258 39.9186L109.642 38.5056L109.847 38.2918H103.941V48.4892H108.254L108.293 48.4555L109.642 47.0425L109.843 46.8339H105.69V43.6674H106.967L107 43.6291L108.404 42.2213L108.613 42.0075H105.69V39.9537H108.22Z" fill="black"/>
<path d="M170.267 41.6694C169.283 41.6694 168.484 40.8694 168.484 39.8867C168.484 38.8942 169.283 38.1039 170.267 38.1039C171.259 38.1039 172.05 38.8942 172.05 39.8867C172.05 40.8694 171.259 41.6694 170.267 41.6694ZM170.267 38.3717C169.426 38.3717 168.752 39.0372 168.752 39.8867C168.752 40.7186 169.426 41.3997 170.267 41.3997C171.108 41.3997 171.78 40.7186 171.78 39.8867C171.78 39.0372 171.108 38.3717 170.267 38.3717ZM170.755 40.9116L170.225 40.105H169.872V40.9116H169.585V38.8689H170.418C170.763 38.8689 171.083 39.1119 171.083 39.4915C171.083 39.9452 170.678 40.0959 170.562 40.0959L171.108 40.9116H170.755ZM170.418 39.1217H169.872V39.8438H170.418C170.594 39.8438 170.788 39.7021 170.788 39.4915C170.788 39.264 170.594 39.1217 170.418 39.1217Z" fill="black"/>
</g>
<defs>
<clipPath id="clip0_17_297">
<rect width="172.05" height="74" fill="white"/>
</clipPath>
</defs>
</svg>
