<svg width="132" height="132" viewBox="0 0 132 132" fill="none" xmlns="http://www.w3.org/2000/svg">
<path d="M115.368 48.2876L115.295 49.1105L115.825 49.7446L129.395 66L115.825 82.2554L115.295 82.8895L115.368 83.7124L117.256 105.186L97.277 109.94L96.4285 110.142L95.9991 110.901L85.5571 129.365L66.8205 120.936L65.9972 120.566L65.1748 120.938L46.4406 129.424L36.0009 110.964L35.5715 110.205L34.723 110.003L14.7433 105.248L16.6324 83.7119L16.7045 82.8893L16.1753 82.2554L2.60338 65.9977L16.1776 49.679L16.7043 49.0458L16.6324 48.2252L14.7437 26.6935L34.7177 21.9984L35.5699 21.798L36.0009 21.036L46.443 2.57227L65.1795 11.0011L66 11.3702L66.8205 11.0011L85.5548 2.57327L95.9978 21.0965L96.4269 21.8577L97.277 22.06L117.256 26.8143L115.368 48.2876Z" stroke="#F8F200" stroke-width="4"/>
<path d="M54.3044 90.084L48.4707 84.2504C46.1373 81.9169 43.8038 81.9169 41.4704 84.2504L36.061 89.6598L38.3945 91.9932L43.8038 86.5838C44.5817 85.806 45.3524 85.799 46.1161 86.5626L46.1373 86.5838L42.0644 90.6568C40.1127 92.6084 40.0915 94.5388 42.0007 96.448C43.9806 98.4279 45.9464 98.442 47.898 96.4904L54.3044 90.084ZM44.3766 94.157C43.9948 93.7751 44.0018 93.3862 44.3978 92.9902L48.4707 88.9173L49.6375 90.084L45.5645 94.157C45.1686 94.5529 44.7726 94.5529 44.3766 94.157ZM66.0777 78.3107L62.7472 81.6412L55.5772 81.8109L54.4104 82.9776L57.9106 86.4778L55.5772 88.8112L46.2434 79.4774L48.5768 77.144L52.077 80.6441L53.2437 79.4774L53.4346 72.2861L56.7439 68.9769L56.6378 78.4168L66.0777 78.3107ZM64.3889 61.3318L71.3893 68.3322L67.8891 71.8324C67.1113 72.6102 66.3335 72.6102 65.5557 71.8324L59.722 65.9987L57.3886 68.3322L63.2222 74.1658C65.5557 76.4993 67.8891 76.4993 70.2226 74.1658L74.8895 69.4989L77.2229 71.8324L79.6624 69.3929L74.9955 64.726L73.7227 65.9987L66.7224 58.9984L64.3889 61.3318ZM87.305 57.0834L84.9715 59.4169L83.9745 58.4198C83.5785 60.428 82.8149 61.9978 81.6835 63.1292C79.35 65.4626 77.0166 65.4626 74.6831 63.1292L68.6374 57.0834L70.9708 54.7499L77.0166 60.7957C77.7803 61.5594 78.5581 61.5594 79.35 60.7957C80.7077 59.0421 81.1319 57.1329 80.6228 55.0681L75.6377 50.083L77.9712 47.7496L87.305 57.0834ZM82.2138 49.4466C80.2339 47.4667 80.2198 45.501 82.1714 43.5494L88.5778 37.143L97.9116 46.4768L95.5781 48.8103L92.078 45.3101L91.0385 46.3495L91.6113 52.7771L88.5778 55.8106L88.005 49.383C86.0534 51.3346 84.123 51.3558 82.2138 49.4466ZM88.5778 41.8099L84.5048 45.8828C84.1089 46.2788 84.123 46.6889 84.5473 47.1132C84.9008 47.4667 85.2756 47.4455 85.6716 47.0496L89.7445 42.9766L88.5778 41.8099Z" fill="#F8F200"/>
</svg>
