<svg width="30" height="30" viewBox="0 0 30 30" fill="none" xmlns="http://www.w3.org/2000/svg">
<g clip-path="url(#clip0_12_230)">
<path d="M15 11.4281C14.2936 11.4284 13.6032 11.6381 13.0159 12.0307C12.4287 12.4234 11.9711 12.9813 11.701 13.634C11.4308 14.2867 11.3603 15.0049 11.4983 15.6977C11.6362 16.3904 11.9765 17.0268 12.4761 17.5262C12.9757 18.0256 13.6122 18.3656 14.305 18.5033C14.9978 18.6411 15.7159 18.5702 16.3685 18.2999C17.0211 18.0295 17.5789 17.5717 17.9713 16.9843C18.3638 16.3969 18.5732 15.7064 18.5732 15C18.5725 14.0527 18.1958 13.1444 17.5258 12.4746C16.8558 11.8049 15.9473 11.4285 15 11.4281ZM23.3511 8.68259C23.1693 8.22177 22.8947 7.80323 22.5444 7.45293C22.1941 7.10263 21.7756 6.82804 21.3147 6.6462C19.9085 6.09107 16.5603 6.21562 15 6.21562C13.4397 6.21562 10.0949 6.08638 8.6846 6.6462C8.22378 6.82804 7.80524 7.10263 7.45494 7.45293C7.10464 7.80323 6.83005 8.22177 6.64821 8.68259C6.09375 10.0888 6.21763 13.4404 6.21763 14.9993C6.21763 16.5583 6.09375 19.9058 6.65089 21.3167C6.83273 21.7776 7.10732 22.1961 7.45761 22.5464C7.80791 22.8967 8.22646 23.1713 8.68728 23.3531C10.0935 23.9083 13.4417 23.7837 15.0027 23.7837C16.5636 23.7837 19.9071 23.9129 21.3174 23.3531C21.7782 23.1713 22.1968 22.8967 22.5471 22.5464C22.8974 22.1961 23.172 21.7776 23.3538 21.3167C23.9129 19.9105 23.7844 16.5589 23.7844 15C23.7844 13.4411 23.9129 10.0942 23.3538 8.68326L23.3511 8.68259ZM15 20.4911C13.914 20.4911 12.8523 20.169 11.9493 19.5657C11.0463 18.9623 10.3425 18.1047 9.92691 17.1013C9.5113 16.098 9.40256 14.9939 9.61444 13.9287C9.82631 12.8636 10.3493 11.8852 11.1172 11.1172C11.8852 10.3493 12.8636 9.82631 13.9287 9.61444C14.9939 9.40256 16.098 9.5113 17.1013 9.92691C18.1047 10.3425 18.9623 11.0463 19.5657 11.9493C20.169 12.8523 20.4911 13.914 20.4911 15C20.492 15.7213 20.3505 16.4358 20.0749 17.1024C19.7992 17.769 19.3948 18.3747 18.8847 18.8847C18.3747 19.3948 17.769 19.7992 17.1024 20.0749C16.4358 20.3505 15.7213 20.492 15 20.4911ZM20.7174 10.5603C20.4639 10.5604 20.216 10.4853 20.0052 10.3446C19.7943 10.2038 19.6299 10.0037 19.5328 9.76952C19.4357 9.53533 19.4102 9.2776 19.4596 9.02894C19.509 8.78027 19.631 8.55183 19.8102 8.37251C19.9894 8.1932 20.2178 8.07106 20.4664 8.02155C20.7151 7.97204 20.9728 7.99739 21.2071 8.09437C21.4413 8.19136 21.6415 8.35564 21.7824 8.56643C21.9233 8.77722 21.9984 9.02505 21.9984 9.27857C21.9991 9.44693 21.9666 9.61377 21.9027 9.76952C21.8388 9.92527 21.7447 10.0669 21.626 10.1862C21.5072 10.3055 21.366 10.4002 21.2106 10.4649C21.0551 10.5295 20.8884 10.5629 20.7201 10.5629L20.7174 10.5603ZM26.7857 0H3.21429C2.3618 0 1.54424 0.338647 0.941442 0.941443C0.338647 1.54424 0 2.3618 0 3.21429L0 26.7857C0 27.6382 0.338647 28.4558 0.941442 29.0586C1.54424 29.6614 2.3618 30 3.21429 30H26.7857C27.6382 30 28.4558 29.6614 29.0586 29.0586C29.6614 28.4558 30 27.6382 30 26.7857V3.21429C30 2.3618 29.6614 1.54424 29.0586 0.941443C28.4558 0.338647 27.6382 0 26.7857 0ZM25.6393 19.4196C25.5529 21.1359 25.1612 22.6567 23.9083 23.9062C22.6554 25.1558 21.1359 25.5556 19.4217 25.6373C17.6531 25.7371 12.3509 25.7371 10.5824 25.6373C8.86607 25.5509 7.35067 25.1585 6.09576 23.9062C4.84085 22.654 4.44643 21.1326 4.36473 19.4196C4.26496 17.6504 4.26496 12.3475 4.36473 10.5804C4.45112 8.86406 4.83817 7.3433 6.09576 6.09375C7.35335 4.8442 8.87277 4.44911 10.5824 4.36741C12.3509 4.26763 17.6531 4.26763 19.4217 4.36741C21.1379 4.45379 22.658 4.84621 23.9083 6.09844C25.1585 7.35067 25.5576 8.8721 25.6393 10.5884C25.7391 12.3509 25.7391 17.6491 25.6393 19.4196Z" fill="black"/>
</g>
<defs>
<clipPath id="clip0_12_230">
<rect width="30" height="30" fill="white"/>
</clipPath>
</defs>
</svg>
