<svg width="30" height="30" viewBox="0 0 30 30" fill="none" xmlns="http://www.w3.org/2000/svg">
<path d="M23.6577 22.3834H22.1128L22.12 21.4793C22.12 21.0774 22.4474 20.7487 22.8477 20.7487H22.9462C23.3471 20.7487 23.6755 21.0774 23.6755 21.4793L23.6577 22.3834ZM17.8638 20.4459C17.4719 20.4459 17.1514 20.7112 17.1514 21.0361V25.4335C17.1514 25.7577 17.4719 26.0225 17.8638 26.0225C18.2572 26.0225 18.578 25.7577 18.578 25.4335V21.0361C18.578 20.7109 18.2572 20.4459 17.8638 20.4459ZM27.2728 17.9861V26.3515C27.2728 28.3581 25.5459 30 23.4356 30H7.65571C5.54449 30 3.81824 28.3581 3.81824 26.3515V17.9861C3.81824 15.9795 5.54449 14.3373 7.65571 14.3373H23.4356C25.5459 14.3373 27.2728 15.9795 27.2728 17.9861ZM8.70835 27.2598L8.7071 18.4478L10.6632 18.4484V17.1428L5.4488 17.1349V18.4185L7.07654 18.4232V27.2598H8.70835ZM14.572 19.7604H12.9411V24.4659C12.9411 25.1467 12.9821 25.487 12.9386 25.6071C12.806 25.9721 12.21 26.3594 11.9776 25.6465C11.9382 25.5217 11.9729 25.1451 11.9723 24.4984L11.9657 19.7604H10.3439L10.3489 24.4237C10.3502 25.1385 10.333 25.6717 10.3546 25.9141C10.3943 26.3417 10.3802 26.8406 10.7739 27.1252C11.5076 27.6581 12.9139 27.0458 13.2657 26.2844L13.2626 27.256L14.5723 27.2576V19.7604H14.572ZM19.7892 25.1489L19.7858 21.2325C19.7845 19.7399 18.6765 18.8458 17.1723 20.0535L17.1789 17.1418L15.5496 17.1443L15.5418 27.1945L16.8812 27.1747L17.0031 26.5488C18.7156 28.1318 19.7917 27.0473 19.7892 25.1489ZM24.8932 24.6298L23.6702 24.6364C23.6695 24.6853 23.668 24.7417 23.6674 24.8032V25.4908C23.6674 25.8586 23.3656 26.1583 22.9991 26.1583H22.7595C22.3924 26.1583 22.0909 25.8586 22.0909 25.4908V25.4145V24.6582V23.6822H24.8911V22.6201C24.8911 21.8439 24.8714 21.068 24.8076 20.6242C24.6074 19.2206 22.6522 18.9977 21.6646 19.7163C21.3544 19.9407 21.1177 20.241 20.9801 20.6447C20.8409 21.0484 20.7721 21.6 20.7721 22.3005V24.6355C20.7724 28.5175 25.4515 27.9689 24.8932 24.6298ZM18.6206 11.9519C18.7047 12.158 18.8354 12.325 19.0127 12.4511C19.1878 12.5753 19.4121 12.6377 19.6801 12.6377C19.9153 12.6377 20.1235 12.5737 20.3049 12.4417C20.4857 12.3102 20.638 12.1139 20.7621 11.852L20.7315 12.4968H22.5494V4.70594H21.1183V10.7695C21.1183 11.0978 20.85 11.3667 20.5219 11.3667C20.1958 11.3667 19.9265 11.0978 19.9265 10.7695V4.70594H18.4329V9.96078C18.4329 10.6302 18.4448 11.0764 18.4645 11.3027C18.4855 11.5274 18.5364 11.743 18.6206 11.9519ZM13.1116 7.55176C13.1116 6.80391 13.1735 6.21993 13.2964 5.79889C13.4202 5.37942 13.6426 5.04221 13.9647 4.78788C14.2858 4.53229 14.6971 4.40434 15.1971 4.40434C15.6178 4.40434 15.978 4.48754 16.2792 4.65048C16.5816 4.81436 16.8146 5.02708 16.9766 5.2896C17.1414 5.55307 17.2533 5.82379 17.313 6.1008C17.374 6.3816 17.404 6.80517 17.404 7.37654V9.34686C17.404 10.0695 17.3753 10.6012 17.3196 10.9387C17.2643 11.2772 17.1454 11.5911 16.9615 11.8854C16.7798 12.1766 16.5456 12.3944 16.2617 12.5334C15.9746 12.6736 15.6462 12.7423 15.2753 12.7423C14.861 12.7423 14.5119 12.6846 14.2242 12.5642C13.9356 12.4445 13.7126 12.2639 13.5538 12.0241C13.3933 11.7839 13.2804 11.4915 13.2123 11.1505C13.1438 10.8098 13.1112 10.2974 13.1112 9.61443V7.55176H13.1116ZM14.5354 10.6465C14.5354 11.0878 14.8613 11.448 15.2581 11.448C15.6553 11.448 15.9796 11.0878 15.9796 10.6465V6.49916C15.9796 6.05857 15.6553 5.69836 15.2581 5.69836C14.8613 5.69836 14.5354 6.05857 14.5354 6.49916V10.6465ZM9.50424 12.7407H11.2192L11.2211 6.76546L13.2476 1.64677H11.3719L10.2945 5.44876L9.20184 1.63637H7.34549L9.50143 6.7683L9.50424 12.7407Z" fill="black"/>
</svg>
